# xmcd
#
# Track frame offsets: 
#        150
#        20627
#        36806
#        58281
#        73676
#        94841
#        113671
#        131433
#        146471
#        169044
#        188646
#        210554
#        227961
#        247494
#        265152
#        283744
#        301842
#
# Disc length: 4236 seconds
#
# Revision: 0
# Processed by: cddbd v1.5.2PL0 Copyright (c) Steve Scherf et al.
# Submitted via: ExactAudioCopy v1.0b3
#
DISCID=fd108a11
DTITLE=Mariah Carey - Charmbracelet
DYEAR=2002
DGENRE=R&B
TTITLE0=When You Believe
TTITLE1=Without You
TTITLE2=Heartbreaker
TTITLE3=Against All Odds
TTITLE4=One Sweet Day
TTITLE5=Emotions
TTITLE6=I Still Believe
TTITLE7=Reflections
TTITLE8=Honey
TTITLE9=Endless Love
TTITLE10=Fantasy
TTITLE11=My All
TTITLE12=Hero
TTITLE13=Dreamlover
TTITLE14=Someday
TTITLE15=Forever
TTITLE16=Vision of Love
EXTD=
EXTT0=
EXTT1=
EXTT2=
EXTT3=
EXTT4=
EXTT5=
EXTT6=
EXTT7=
EXTT8=
EXTT9=
EXTT10=
EXTT11=
EXTT12=
EXTT13=
EXTT14=
EXTT15=
EXTT16=
PLAYORDER=
